<?xml version="1.0" encoding="utf-8"?>
<!-- Generator: Adobe Illustrator 16.0.0, SVG Export Plug-In . SVG Version: 6.00 Build 0)  -->
<!DOCTYPE svg PUBLIC "-//W3C//DTD SVG 1.1//EN" "http://www.w3.org/Graphics/SVG/1.1/DTD/svg11.dtd">
<svg version="1.1" id="elements" xmlns="http://www.w3.org/2000/svg" xmlns:xlink="http://www.w3.org/1999/xlink" x="0px" y="0px"
	 width="980px" height="1400px" viewBox="210 -210 980 1400" enable-background="new 210 -210 980 1400" xml:space="preserve">
<pattern  x="450.5" y="740.5" width="9.274" height="8.031" patternUnits="userSpaceOnUse" id="SVGID_3_" viewBox="0 -8.031 9.274 8.031" overflow="visible">
	<g>
		<polygon fill="none" points="0,0 9.274,0 9.274,-8.031 0,-8.031 		"/>
		<g>
			<polygon fill="none" points="0,-8.031 9.274,-8.031 9.274,0 0,0 			"/>
			<g>
				<polygon fill="none" points="0,0 9.274,0 9.274,-8.031 0,-8.031 				"/>
				<polygon fill="none" stroke="#FFFFFF" stroke-width="0.5" stroke-miterlimit="10" points="2.463,-0.25 0.289,-4.016 
					2.463,-7.781 6.811,-7.781 8.985,-4.016 6.811,-0.25 				"/>
			</g>
		</g>
	</g>
</pattern>
<pattern  x="450.5" y="740.5" width="9.274" height="8.031" patternUnits="userSpaceOnUse" id="SVGID_4_" viewBox="0 -8.031 9.274 8.031" overflow="visible">
	<g>
		<polygon fill="none" points="0,0 9.274,0 9.274,-8.031 0,-8.031 		"/>
		<g>
			<polygon fill="none" points="0,-8.031 9.274,-8.031 9.274,0 0,0 			"/>
			<g>
				<polygon fill="none" points="0,0 9.274,0 9.274,-8.031 0,-8.031 				"/>
				<polygon fill="none" stroke="#FFFFFF" stroke-width="0.5" stroke-miterlimit="10" points="2.463,-0.25 0.289,-4.016 
					2.463,-7.781 6.811,-7.781 8.985,-4.016 6.811,-0.25 				"/>
			</g>
		</g>
	</g>
</pattern>
<g>
	<rect x="210.001" y="1089.998" fill="#4F980B" width="980" height="100"/>
	<rect x="210.001" y="989.998" fill="#3C8009" width="980" height="100"/>
	<rect x="210.001" y="889.998" fill="#4F980B" width="980" height="100"/>
	<rect x="210.001" y="790" fill="#3C8009" width="980" height="99.998"/>
	<rect x="210.001" y="690" fill="#4F980B" width="980" height="100"/>
	<rect x="210.001" y="590" fill="#3C8009" width="980" height="100"/>
	<rect x="210.001" y="490.001" fill="#4F980B" width="980" height="100"/>
	<rect x="210.001" y="390.003" fill="#3C8009" width="980" height="99.998"/>
	<rect x="210.001" y="290.003" fill="#4F980B" width="980" height="100"/>
	<rect x="210.001" y="190.003" fill="#3C8009" width="980" height="100"/>
	<rect x="210.001" y="90.003" fill="#4F980B" width="980" height="100"/>
	<rect x="210" y="-9.997" fill="#3C8009" width="980.001" height="100"/>
	<rect x="210.001" y="-109.998" fill="#4F980B" width="980" height="100.001"/>
	<rect x="210.001" y="-209.999" fill="#3C8009" width="980" height="100.001"/>
</g>
<g>
	
		<rect x="296.001" y="-112.999" fill="none" stroke="#FFFFFF" stroke-width="7" stroke-miterlimit="10" width="802" height="1205.997"/>
	
		<line fill="none" stroke="#FFFFFF" stroke-width="7" stroke-miterlimit="10" x1="296.001" y1="489.998" x2="1098.001" y2="489.998"/>
	<g>
		
			<rect x="636.756" y="1092.998" fill="none" stroke="#FFFFFF" stroke-width="4.2093" stroke-miterlimit="10" width="120.487" height="43.063"/>
		<pattern  id="SVGID_1_" xlink:href="#SVGID_3_" patternTransform="matrix(1 0 0 1 -13.5127 15525.6406)">
		</pattern>
		<rect x="636.756" y="1092.998" fill="url(#SVGID_1_)" width="120.487" height="43.063"/>
		<g>
			<polyline fill="none" stroke="#FFFFFF" stroke-width="7" stroke-miterlimit="10" points="469.604,1092.998 469.604,906.113 
				924.397,906.113 924.397,1092.998 			"/>
			<polyline fill="none" stroke="#FFFFFF" stroke-width="7" stroke-miterlimit="10" points="593.883,1092.998 593.884,1032.023 
				800.116,1032.023 800.116,1092.998 			"/>
			<path fill="none" stroke="#FFFFFF" stroke-width="7" stroke-miterlimit="10" d="M611.523,906.109
				c19.63-25.729,50.615-42.328,85.478-42.328c34.861,0.002,65.846,16.604,85.48,42.33"/>
		</g>
	</g>
	<g>
		
			<rect x="636.757" y="-156.06" fill="none" stroke="#FFFFFF" stroke-width="4.2093" stroke-miterlimit="10" width="120.486" height="43.062"/>
		<pattern  id="SVGID_2_" xlink:href="#SVGID_4_" patternTransform="matrix(-1 0 0 1 -47373.6133 15525.6406)">
		</pattern>
		<rect x="636.757" y="-156.06" fill="url(#SVGID_2_)" width="120.486" height="43.062"/>
		<g>
			<polyline fill="none" stroke="#FFFFFF" stroke-width="7" stroke-miterlimit="10" points="469.604,-112.999 469.604,73.883 
				924.397,73.883 924.397,-112.999 			"/>
			<polyline fill="none" stroke="#FFFFFF" stroke-width="7" stroke-miterlimit="10" points="593.884,-112.999 593.884,-52.024 
				800.116,-52.024 800.116,-112.999 			"/>
			<path fill="none" stroke="#FFFFFF" stroke-width="7" stroke-miterlimit="10" d="M611.523,73.89
				c19.63,25.727,50.615,42.325,85.478,42.325s65.846-16.602,85.48-42.328"/>
		</g>
	</g>
	<path fill="none" stroke="#FFFFFF" stroke-width="7" stroke-miterlimit="10" d="M697.001,381.854
		c59.73,0,108.146,48.42,108.146,108.146c0,59.727-48.418,108.145-108.146,108.145c-59.729,0-108.146-48.42-108.146-108.145
		C588.854,430.274,637.271,381.854,697.001,381.854z"/>
	<circle fill="#FFFFFF" cx="697.002" cy="489.998" r="7.319"/>
	<path fill="none" stroke="#FFFFFF" stroke-width="4" stroke-miterlimit="10" d="M296.001,1062.617
		c15.836,1.311,28.351,14.33,28.856,30.379"/>
	<path fill="none" stroke="#FFFFFF" stroke-width="4" stroke-miterlimit="10" d="M1098.001,1062.617
		c-15.836,1.311-28.348,14.33-28.854,30.379"/>
	<path fill="none" stroke="#FFFFFF" stroke-width="4" stroke-miterlimit="10" d="M296.001-82.621
		c15.836-1.308,28.349-14.328,28.855-30.38"/>
	<path fill="none" stroke="#FFFFFF" stroke-width="4" stroke-miterlimit="10" d="M1098.001-82.621
		c-15.836-1.308-28.348-14.328-28.854-30.38"/>
</g>
<radialGradient id="SVGID_5_" cx="1267.7012" cy="423.0156" r="866.9055" gradientTransform="matrix(-4.371139e-008 -1 0.7824 -3.419979e-008 369.0337 1757.7007)" gradientUnits="userSpaceOnUse">
	<stop  offset="0.0043" style="stop-color:#FFFFFF;stop-opacity:0"/>
	<stop  offset="0.0982" style="stop-color:#F9F9F9;stop-opacity:0.0471"/>
	<stop  offset="0.2224" style="stop-color:#E8E8E8;stop-opacity:0.1095"/>
	<stop  offset="0.3636" style="stop-color:#CDCDCD;stop-opacity:0.1804"/>
	<stop  offset="0.5173" style="stop-color:#A7A7A7;stop-opacity:0.2576"/>
	<stop  offset="0.6813" style="stop-color:#757575;stop-opacity:0.34"/>
	<stop  offset="0.851" style="stop-color:#3A3A3A;stop-opacity:0.4252"/>
	<stop  offset="1" style="stop-color:#000000;stop-opacity:0.5"/>
</radialGradient>
<rect x="210" y="-209.999" fill="url(#SVGID_5_)" width="980.001" height="1399.997"/>
</svg>
