<?xml version="1.0" encoding="utf-8"?>
<!-- Generator: Adobe Illustrator 16.0.0, SVG Export Plug-In . SVG Version: 6.00 Build 0)  -->
<!DOCTYPE svg PUBLIC "-//W3C//DTD SVG 1.1//EN" "http://www.w3.org/Graphics/SVG/1.1/DTD/svg11.dtd">
<svg version="1.1" id="elements" xmlns="http://www.w3.org/2000/svg" xmlns:xlink="http://www.w3.org/1999/xlink" x="0px" y="0px"
	 width="1400px" height="980px" viewBox="-35.982 261.005 1400 980" enable-background="new -35.982 261.005 1400 980"
	 xml:space="preserve">
<pattern  x="240.5" y="950.5" width="9.274" height="8.031" patternUnits="userSpaceOnUse" id="SVGID_1_" viewBox="0 -8.031 9.274 8.031" overflow="visible">
	<g>
		<polygon fill="none" points="0,0 9.274,0 9.274,-8.031 0,-8.031 		"/>
		<g>
			<polygon fill="none" points="0,-8.031 9.274,-8.031 9.274,0 0,0 			"/>
			<polygon fill="none" stroke="#FFFFFF" stroke-width="0.5" stroke-miterlimit="10" points="2.463,-7.781 0.289,-4.016 
				2.463,-0.25 6.811,-0.25 8.985,-4.016 6.811,-7.781 			"/>
		</g>
	</g>
</pattern>
<pattern  x="240.5" y="950.5" width="9.274" height="8.031" patternUnits="userSpaceOnUse" id="SVGID_2_" viewBox="0 -8.031 9.274 8.031" overflow="visible">
	<g>
		<polygon fill="none" points="0,0 9.274,0 9.274,-8.031 0,-8.031 		"/>
		<g>
			<polygon fill="none" points="0,-8.031 9.274,-8.031 9.274,0 0,0 			"/>
			<polygon fill="none" stroke="#FFFFFF" stroke-width="0.5" stroke-miterlimit="10" points="2.463,-7.781 0.289,-4.016 
				2.463,-0.25 6.811,-0.25 8.985,-4.016 6.811,-7.781 			"/>
		</g>
	</g>
</pattern>
<g>
	<rect x="-35.98" y="261.005" fill="#4F980B" width="100" height="979.999"/>
	<rect x="64.02" y="261.005" fill="#3C8009" width="100" height="979.999"/>
	<rect x="164.02" y="261.005" fill="#4F980B" width="100" height="979.999"/>
	<rect x="264.02" y="261.005" fill="#3C8009" width="100" height="979.999"/>
	<rect x="364.02" y="261.005" fill="#4F980B" width="100" height="979.999"/>
	<rect x="464.02" y="261.005" fill="#3C8009" width="100" height="979.999"/>
	<rect x="564.018" y="261.005" fill="#4F980B" width="100" height="979.999"/>
	<rect x="664.018" y="261.005" fill="#3C8009" width="99.998" height="979.999"/>
	<rect x="764.016" y="261.005" fill="#4F980B" width="100" height="979.999"/>
	<rect x="864.016" y="261.005" fill="#3C8009" width="100" height="979.999"/>
	<rect x="964.016" y="261.005" fill="#4F980B" width="100" height="979.999"/>
	<rect x="1064.016" y="261.004" fill="#3C8009" width="100" height="980"/>
	<rect x="1164.016" y="261.005" fill="#4F980B" width="100.001" height="980"/>
	<rect x="1264.017" y="261.005" fill="#3C8009" width="100.001" height="980"/>
</g>
<g>
	
		<rect x="61.02" y="347.005" fill="none" stroke="#FFFFFF" stroke-width="7" stroke-miterlimit="10" width="1205.998" height="802"/>
	
		<line fill="none" stroke="#FFFFFF" stroke-width="7" stroke-miterlimit="10" x1="664.021" y1="347.005" x2="664.021" y2="1149.005"/>
	<g>
		
			<rect x="17.959" y="687.76" fill="none" stroke="#FFFFFF" stroke-width="4.2093" stroke-miterlimit="10" width="43.061" height="120.487"/>
		<pattern  id="SVGID_3_" xlink:href="#SVGID_1_" patternTransform="matrix(1 0 0 -1 -202.2915 -15818.5029)">
		</pattern>
		<rect x="17.959" y="687.76" fill="url(#SVGID_3_)" width="43.061" height="120.487"/>
		<g>
			<polyline fill="none" stroke="#FFFFFF" stroke-width="7" stroke-miterlimit="10" points="61.021,520.608 247.905,520.608 
				247.905,975.401 61.02,975.401 			"/>
			<polyline fill="none" stroke="#FFFFFF" stroke-width="7" stroke-miterlimit="10" points="61.021,644.887 121.995,644.888 
				121.995,851.12 61.02,851.12 			"/>
			<path fill="none" stroke="#FFFFFF" stroke-width="7" stroke-miterlimit="10" d="M247.909,662.527
				c25.729,19.63,42.328,50.616,42.328,85.478c-0.002,34.861-16.602,65.846-42.33,85.479"/>
		</g>
	</g>
	<g>
		
			<rect x="1267.018" y="687.761" fill="none" stroke="#FFFFFF" stroke-width="4.2093" stroke-miterlimit="10" width="43.061" height="120.486"/>
		<pattern  id="SVGID_4_" xlink:href="#SVGID_2_" patternTransform="matrix(-1 0 0 -1 -31197.3926 -15818.5029)">
		</pattern>
		<rect x="1267.018" y="687.761" fill="url(#SVGID_4_)" width="43.061" height="120.486"/>
		<g>
			<polyline fill="none" stroke="#FFFFFF" stroke-width="7" stroke-miterlimit="10" points="1267.018,520.608 1080.136,520.608 
				1080.136,975.401 1267.018,975.401 			"/>
			<polyline fill="none" stroke="#FFFFFF" stroke-width="7" stroke-miterlimit="10" points="1267.018,644.888 1206.043,644.888 
				1206.043,851.12 1267.018,851.12 			"/>
			<path fill="none" stroke="#FFFFFF" stroke-width="7" stroke-miterlimit="10" d="M1080.129,662.527
				c-25.727,19.63-42.325,50.616-42.325,85.478s16.601,65.846,42.328,85.479"/>
		</g>
	</g>
	<path fill="none" stroke="#FFFFFF" stroke-width="7" stroke-miterlimit="10" d="M772.165,748.005
		c0,59.729-48.42,108.146-108.145,108.146c-59.727,0-108.146-48.418-108.146-108.146c0-59.73,48.42-108.147,108.146-108.147
		C723.745,639.857,772.165,688.274,772.165,748.005z"/>
	<circle fill="#FFFFFF" cx="664.021" cy="748.005" r="7.319"/>
	<path fill="none" stroke="#FFFFFF" stroke-width="4" stroke-miterlimit="10" d="M91.401,347.005
		c-1.309,15.836-14.33,28.35-30.379,28.856"/>
	<path fill="none" stroke="#FFFFFF" stroke-width="4" stroke-miterlimit="10" d="M91.401,1149.005
		c-1.309-15.836-14.33-28.348-30.379-28.855"/>
	<path fill="none" stroke="#FFFFFF" stroke-width="4" stroke-miterlimit="10" d="M1236.64,347.005
		c1.307,15.836,14.328,28.349,30.379,28.856"/>
	<path fill="none" stroke="#FFFFFF" stroke-width="4" stroke-miterlimit="10" d="M1236.64,1149.005
		c1.307-15.836,14.328-28.348,30.379-28.855"/>
</g>
<radialGradient id="SVGID_5_" cx="959.0361" cy="274.5933" r="866.9047" gradientTransform="matrix(1 0 0 -0.7824 -295.0176 965.8465)" gradientUnits="userSpaceOnUse">
	<stop  offset="0.0043" style="stop-color:#FFFFFF;stop-opacity:0"/>
	<stop  offset="0.0982" style="stop-color:#F9F9F9;stop-opacity:0.0471"/>
	<stop  offset="0.2224" style="stop-color:#E8E8E8;stop-opacity:0.1095"/>
	<stop  offset="0.3636" style="stop-color:#CDCDCD;stop-opacity:0.1804"/>
	<stop  offset="0.5173" style="stop-color:#A7A7A7;stop-opacity:0.2576"/>
	<stop  offset="0.6813" style="stop-color:#757575;stop-opacity:0.34"/>
	<stop  offset="0.851" style="stop-color:#3A3A3A;stop-opacity:0.4252"/>
	<stop  offset="1" style="stop-color:#000000;stop-opacity:0.5"/>
</radialGradient>
<rect x="-35.98" y="261.004" fill="url(#SVGID_5_)" width="1399.998" height="980"/>
</svg>
