<?xml version="1.0" encoding="utf-8"?>
<!-- Generator: Adobe Illustrator 16.0.0, SVG Export Plug-In . SVG Version: 6.00 Build 0)  -->
<!DOCTYPE svg PUBLIC "-//W3C//DTD SVG 1.1//EN" "http://www.w3.org/Graphics/SVG/1.1/DTD/svg11.dtd">
<svg version="1.1" id="Layer_1" xmlns="http://www.w3.org/2000/svg" xmlns:xlink="http://www.w3.org/1999/xlink" x="0px" y="0px"
	 width="500px" height="650px" viewBox="0 0 500 650" enable-background="new 0 0 500 650" xml:space="preserve">
<path fill="#FCC8AC" d="M384.536,422.671c-16.856,1.83-31.992,0.071-40.633-4.055c2.063,8.08,4.094,15.638,5.938,22.291
	c4.063,14.692,9.075,29.114,15.012,43.268c0.719,1.701,4.93,14.052,36.552,8.73c20.957-3.532,33.222-18.119,32.633-23.517
	c-5.117-16.734-8.389-33.891-9.515-51.229c-0.194-2.98-0.362-5.991-0.492-9.019C417.083,415.384,402.232,420.747,384.536,422.671z"
	/>
<g>
	<g>
		<g>
			<g>
				<g>
					<path fill="#0B8082" d="M325.24,329.732c-2.816-40.142-54.782-41.625-29.596-46.274
						c65.743-12.14,108.657,24.695,114.588,58.596c1.599,9.136,6.851,43.592,12.604,72.762c-2.157,3.675-14.886,14.41-42.395,16.637
						c-14.887,1.204-33.02-0.383-38.304-5.564C340.774,421.143,328.69,378.854,325.24,329.732z"/>
					<g>
						<path fill="#DBD056" d="M420.629,403.208c-2.549,3.886-15.248,14.173-42.173,16.354c-14.887,1.197-33.02-0.384-38.304-5.57
							c-0.9-3.124-6.083-20.628-10.751-47.56c4.902,32.009,11.728,55.956,12.736,59.457c5.284,5.182,23.417,6.769,38.304,5.564
							c27.509-2.227,40.237-12.962,42.395-16.637C422.214,411.653,421.238,406.454,420.629,403.208z"/>
					</g>
				</g>
				<path fill="#439FA1" d="M158.692,336.797c18.721-12.956,38.361-24.771,58.671-35.52l38.71-20.493
					c17.537-9.285,48.458-8.107,68.704,2.61l32.012,16.943c42.7,26.702,49.961,75.325,49.961,102.918v107.724
					c0.609,8.305-4.369,16.323-15.431,22.181l-116.054,61.433c-22.872,12.108-63.189,10.573-89.597-3.408l-41.745-22.1
					c-14.001-7.407-21.321-16.887-21.769-25.964c-0.095,0-0.095-107.725-0.095-107.725c0.228-23.512-24.554-22.581-20.481-36.864
					C108.496,374.289,131.79,355.406,158.692,336.797z"/>
				<path fill="#2E9395" d="M198.376,464.246c0,0,1.424-71.459-48.912-84.857s-8.118,92.302-8.118,92.302l22.731,28.286
					L198.376,464.246z"/>
				<path fill="#0B8082" d="M356.789,300.337l-32.012-16.943c-20.246-10.717-51.161-11.895-68.704-2.61l-39.949,21.147
					c-19.226,10.177-37.81,21.368-55.563,33.585c-25.951,17.866-48.835,35.87-57.411,58.504
					c24.395,22.756,49.014,45.303,73.728,67.761c-2.993-18.54-23.854-18.784-20.091-31.984
					c9.423-33.025,49.232-56.096,87.153-82.102l67.34-35.649c14.957-7.917,39.598-8.162,59.102-1.433
					C366.297,306.938,361.806,303.475,356.789,300.337z"/>
				<path fill="#2E9395" d="M122.061,436.037v107.084c0.542,9.077,7.862,18.557,21.863,25.964l41.745,22.1
					c3.938,2.083,8.252,3.805,12.707,5.328V464.246l-39.996-55.105L122.061,436.037z"/>
				<g>
					<path fill="#0B8082" d="M92.401,419.149c11.094-45.739,36.262-46.576,57.063-39.761c45.465,14.887,40.86,79.45,39.249,84.922
						c-6.146,20.918-14.249,51.902-17.356,79.118c-2.775,2.152-22.463,10.771-53.326,5.962
						c-22.334-3.479-36.795-10.276-40.867-17.656C77.328,526.023,78.822,475.121,92.401,419.149z"/>
				</g>
			</g>
		</g>
		<g>
			<path fill="#DBD056" d="M118.667,536.194c-19.768-3.082-33.845-8.519-41.063-14.748c-0.289,5.362-0.403,9.016-0.441,10.288
				c4.072,7.38,18.537,14.178,40.867,17.662c30.863,4.803,50.551-3.815,53.326-5.968c0.428-3.744,0.963-7.559,1.561-11.409
				C164.274,535.497,145.23,540.335,118.667,536.194z"/>
		</g>
		<path fill="none" d="M240.114,296.307l78.923,7.139c0,0,39.103,18.907,9.933,95.029c0,0-78.891-8.536-111.518-44.045
			S240.114,296.307,240.114,296.307"/>
	</g>
	<g>
		<path fill="#0B8082" d="M311.159,383.431c-9.851,3.286-19.947,4.764-29.811,4.764c-36.946,0-70.613-20.646-75.641-43.849
			c-4.157-19.191,3.961-32.02,13.057-40.042c-15.866,10.018-32.041,13.547-25.795,42.363c6.383,29.466,46.028,53.438,88.379,53.438
			c11.842,0,23.366-1.85,34.257-5.483c19.168-6.403,33.242-19.435,39.617-36.69c5.962-16.144,4.236-34.449-4.23-48.852
			c-3.958,1.888-7.992,3.316-12.141,4.426C352.939,335.622,346.399,371.654,311.159,383.431z"/>
	</g>
</g>
<g>
	<g>
		<path fill="#9A7153" d="M370.841,96.709c-14.561-12.991-25.782-18.603-67.136-18.603l-17.897,63.131
			c10.738,0.475,17.897-0.063,17.897-0.063c22.555-0.452,44.075-2.257,66.085-7.433c3.149-0.331,6.244,4.795,8.8,11.699
			l-21.164,20.749l6.501,34.151l31.672,2.275V134.51C395.599,113.698,378.354,103.414,370.841,96.709z"/>
		<g>
			<g>
				<path fill="#FCC8AC" d="M123.176,547.186c-18.753-2.838-34.419-9.088-42.296-16.033c-0.566,9.357-0.99,18.139-1.303,25.881
					c-0.694,17.107-0.283,34.189,1.225,51.24c0.18,2.055,0.454,16.658,36.295,19.939c23.76,2.174,41.977-10.145,43.208-16.166
					c0.268-19.623,2.668-39.17,7.435-58.307c0.818-3.287,1.683-6.605,2.581-9.928C160.693,548.598,142.875,550.166,123.176,547.186z
					"/>
			</g>
			<path fill="#F6F5F8" d="M334.038,434.033l2.722-7.088c33.415-87.029-13.392-110.801-15.398-111.77l-1.775-0.859l-2-0.178
				l-71.828-6.486l-52.171,27.564c-2.031,3.284-3.692,6.813-4.652,10.644c-3.153,12.584,0.989,25.205,12.311,37.508
				c36.712,39.883,121.063,49.402,124.635,49.789L334.038,434.033z"/>
			<path fill="none" d="M235.653,319.914l77.388,6.987c0,0,38.34,18.5,9.739,93.002c0,0-77.355-8.352-109.348-43.104
				C181.44,342.046,235.653,319.914,235.653,319.914"/>
			<g>
				<path fill="#AC835F" d="M374.834,83.161c-9.158-8.304-89.03-23.429-89.03-23.429c-40.236-5.667-76.352,11.454-88.455,20.108
					c0,0-43.609,18.36-38.673,101.18c4.751,79.727,45.935,124.665,72.189,120.882l26.495-12.541
					c-1.364-52.251-0.274-121.514,3.245-153.969c45.059,6.528,70.455-3.427,82.6-17.146c0.884-0.156,1.767-0.298,2.648-0.461
					c-0.276-0.683-0.43-1.426-0.48-2.188c0.825-1.115,1.577-2.25,2.25-3.395h-1.713c0.977-2.496,3.231-4.636,6.776-5.069
					c10.045-1.217,23.069-7.596,29.957-15.31C380.318,88.758,377.771,85.824,374.834,83.161z"/>
				<path fill="#FCC8AC" d="M213.127,259.168l98.482,1.075l7.133,99.717c-1.399,7.605-8.778,15.828-21.542,22.568
					c-23.825,12.59-57.393,1.66-74.971-7.631c-7.137-3.77-9.167-7.659-9.102-13.305V259.168z"/>
				<path fill="#FCC8AC" d="M313.041,326.9c0,0,38.34,18.5,9.739,93.002c0,0-77.355-8.352-109.348-43.104
					c-31.993-34.753,22.22-56.885,22.22-56.885L313.041,326.9z"/>
				<path fill="#F6AB7F" d="M323.342,418.334c18.407-49.086,7.51-73.424-1.691-84.141l-1.718-23.978l-97.9-18.304L323.342,418.334z"
					/>
				<g>
					<g id="XMLID_507_">
						<path id="XMLID_508_" fill="#FCC8AC" d="M378.26,184.112c13.969-9.198,23.389-4.742,26.7,12.026
							c3.755,18.981-7.914,54.923-26.7,55.396V184.112z"/>
					</g>
					<g>
						<path fill="#F8B893" d="M318.015,123.189h51.655c6.504,0,12.211,9.687,15.734,17.433c2.476,5.441,3.727,11.261,3.727,17.141
							v102.532c0,16.341-11.674,40.651-19.674,50.993c-15.737,20.34-31.475,25.197-49.835,28.083
							C326.077,306.024,324.969,157.487,318.015,123.189z"/>
						<path fill="#FDDAC7" d="M385.404,140.622c-3.523-7.746-9.23-17.433-15.734-17.433h-9.569c6.503,0,12.212,9.687,15.732,17.433
							c2.478,5.441,3.729,11.261,3.729,17.141v102.529c0,16.344-11.672,40.654-19.672,50.996
							c-12.836,16.592-25.675,22.878-39.936,26.199c-0.106,0.659-0.22,1.296-0.332,1.884c18.36-2.886,34.098-7.743,49.835-28.083
							c8-10.341,19.674-34.652,19.674-50.996V157.763C389.131,151.883,387.88,146.063,385.404,140.622z"/>
						<path fill="#FCC8AC" d="M203.196,139.291c0.313-0.526,0.749-0.979,1.103-1.482c4.553-8.581,14.158-14.619,25.502-14.619
							h102.037c17.413,131.13,4.643,185.481-12.217,216.182c-16.104,2.535-36.011,1.826-47.798-2.623
							c-18.068-6.825-61.057-41.831-64.2-72.864l-7.898-111.178C199.443,147.831,200.801,143.275,203.196,139.291z"/>
					</g>
				</g>
				<path id="XMLID_506_" fill="#FCC8AC" d="M338.792,289.749c24.678-0.89,30.427-8.364,30.427-17.994l-33.778-83.856
					c0-9.63-10.318-17.43-20.84-17.43l-5.305,8.799c-10.524,0-19.131,7.88-19.131,17.51l29.498,75.465
					C319.663,281.873,328.272,289.749,338.792,289.749z"/>
				<g>
					<path fill="#AC835F" d="M368.383,80.525c-6.074,1.446-124.445,6.281-124.445,6.281c-41.703,11.87-38.609,44.089-38.609,44.089
						l13.54,70.418l0.543,42.488c15.555-14.69,25.434-42.873,36.281-91.409c36.668,12.165,100.644,3.432,127.905-23.558
						C399.563,113.03,397.064,89.336,368.383,80.525z"/>
				</g>
				<path id="XMLID_505_" fill="#FCC8AC" d="M208.252,204.231c-14.094-9.431-30.842-2.573-34.184,14.625
					c-3.785,19.465,15.228,49.066,34.184,49.55V204.231z"/>
				<g id="XMLID_489_">
					<g id="XMLID_503_">
						<ellipse id="XMLID_504_" fill="#5D2E11" cx="365.551" cy="203.104" rx="10.485" ry="9.596"/>
					</g>
					<g id="XMLID_490_">
						<ellipse id="XMLID_502_" fill="#5D2E11" cx="290.554" cy="214.837" rx="10.487" ry="9.596"/>
					</g>
				</g>
			</g>
		</g>
		<path fill="#AC835F" d="M218.869,231.479c0,0-3.564-35.056-28.512-31.795c-18.118,2.371-0.594-73.384-0.594-73.384l39.203-14.132
			l18.412,34.79L223.62,218.71L218.869,231.479z"/>
		<g>
			<path fill="#AC835F" d="M219.412,243.802c12.127-11.454,20.803-31.267,29.177-62.376c-4.611-9.608-15.028-22.482-38.303-36.219
				c-11.533-6.807-38.403-23.341-42.792-29.462c-6.25,15.182-10.551,36.187-8.818,65.275
				c3.772,63.259,30.468,104.503,54.452,117.001v-16.563c-2.192-4.365-3.772-8.768-4.714-13.124
				c-19.118-0.413-38.13-30.014-34.345-49.479c1.952-10.035,8.498-16.366,16.387-18.137l-0.098-1.036
				c4.396-0.575,8.094,0.085,11.259,1.489c2.239,0.691,4.469,1.607,6.637,3.059v1.627c7.04,7.342,9.573,18.976,10.333,23.614
				l-0.931,16.517L219.412,243.802z"/>
		</g>
	</g>
	<path fill="#BA987A" d="M374.141,123.861c16.055-13.471,23.148-31.044,0.128-41.126c-11.283-8.384-88.465-23.002-88.465-23.002
		c-40.236-5.667-76.352,11.454-88.455,20.108c0,0-11.959,5.059-22.643,21.753C187.747,137.597,329.105,161.639,374.141,123.861z"/>
</g>
</svg>
