<?xml version="1.0" encoding="utf-8"?>
<!-- Generator: Adobe Illustrator 16.0.0, SVG Export Plug-In . SVG Version: 6.00 Build 0)  -->
<!DOCTYPE svg PUBLIC "-//W3C//DTD SVG 1.1//EN" "http://www.w3.org/Graphics/SVG/1.1/DTD/svg11.dtd">
<svg version="1.1" id="Layer_1" xmlns="http://www.w3.org/2000/svg" xmlns:xlink="http://www.w3.org/1999/xlink" x="0px" y="0px"
	 width="500px" height="650px" viewBox="0 0 500 650" enable-background="new 0 0 500 650" xml:space="preserve">
<g>
	<g>
		<g>
			<path fill="#FCC8AC" d="M380.869,433.445c-16.671,1.833-31.642,0.07-40.188-4.06c2.041,8.089,4.049,15.652,5.872,22.314
				c4.018,14.707,8.976,29.144,14.848,43.31c0.711,1.705,4.875,14.065,36.153,8.738c20.727-3.532,32.855-18.135,32.272-23.539
				c-5.059-16.752-8.297-33.926-9.409-51.279c-0.191-2.985-0.358-5.997-0.486-9.031
				C413.061,426.151,398.373,431.519,380.869,433.445z"/>
		</g>
	</g>
</g>
<g>
	<g>
		<g>
			<g>
				<g>
					<path fill="#0B8082" d="M325.24,329.732c-2.816-40.142-54.782-41.625-29.596-46.274
						c65.743-12.14,108.657,24.695,114.588,58.596c1.599,9.136,6.851,43.592,12.604,72.762c-2.157,3.675-14.886,14.41-42.395,16.637
						c-14.887,1.204-33.02-0.383-38.304-5.564C340.774,421.143,328.69,378.854,325.24,329.732z"/>
					<g>
						<path fill="#DBD056" d="M420.629,403.208c-2.549,3.886-15.248,14.173-42.173,16.354c-14.887,1.197-33.02-0.384-38.304-5.57
							c-0.9-3.124-6.083-20.628-10.751-47.56c4.902,32.009,11.728,55.956,12.736,59.457c5.284,5.182,23.417,6.769,38.304,5.564
							c27.509-2.227,40.237-12.962,42.395-16.637C422.214,411.653,421.238,406.454,420.629,403.208z"/>
					</g>
				</g>
				<path fill="#439FA1" d="M158.692,336.797c18.721-12.956,38.361-24.771,58.671-35.52l38.71-20.493
					c17.537-9.285,48.458-8.107,68.704,2.61l32.012,16.943c42.7,26.702,49.961,75.325,49.961,102.918v107.724
					c0.609,8.305-4.369,16.323-15.431,22.181l-116.054,61.433c-22.872,12.108-63.189,10.573-89.597-3.408l-41.745-22.1
					c-14.001-7.407-21.321-16.887-21.769-25.964c-0.095,0-0.095-107.725-0.095-107.725c0.228-23.512-24.554-22.581-20.481-36.864
					C108.496,374.289,131.79,355.406,158.692,336.797z"/>
				<path fill="#2E9395" d="M198.376,464.246c0,0,1.424-71.459-48.912-84.857s-8.118,92.302-8.118,92.302l22.731,28.286
					L198.376,464.246z"/>
				<path fill="#0B8082" d="M356.789,300.337l-32.012-16.943c-20.246-10.717-51.161-11.895-68.704-2.61l-39.949,21.147
					c-19.226,10.177-37.81,21.368-55.563,33.585c-25.951,17.866-48.835,35.87-57.411,58.504
					c24.395,22.756,49.014,45.303,73.728,67.761c-2.993-18.54-23.854-18.784-20.091-31.984
					c9.423-33.025,49.232-56.096,87.153-82.102l67.34-35.649c14.957-7.917,39.598-8.162,59.102-1.433
					C366.297,306.938,361.806,303.475,356.789,300.337z"/>
				<path fill="#2E9395" d="M122.061,436.037v107.084c0.542,9.077,7.862,18.557,21.863,25.964l41.745,22.1
					c3.938,2.083,8.252,3.805,12.707,5.328V464.246l-39.996-55.105L122.061,436.037z"/>
				<g>
					<path fill="#0B8082" d="M92.401,419.149c11.094-45.739,36.262-46.576,57.063-39.761c45.465,14.887,40.86,79.45,39.249,84.922
						c-6.146,20.918-14.249,51.902-17.356,79.118c-2.775,2.152-22.463,10.771-53.326,5.962
						c-22.334-3.479-36.795-10.276-40.867-17.656C77.328,526.023,78.822,475.121,92.401,419.149z"/>
				</g>
			</g>
		</g>
		<g>
			<path fill="#DBD056" d="M118.667,536.194c-19.768-3.082-33.845-8.519-41.063-14.748c-0.289,5.362-0.403,9.016-0.441,10.288
				c4.072,7.38,18.537,14.178,40.867,17.662c30.863,4.803,50.551-3.815,53.326-5.968c0.428-3.744,0.963-7.559,1.561-11.409
				C164.274,535.497,145.23,540.335,118.667,536.194z"/>
		</g>
		<path fill="none" d="M240.114,296.307l78.923,7.139c0,0,39.103,18.907,9.933,95.029c0,0-78.891-8.536-111.518-44.045
			S240.114,296.307,240.114,296.307"/>
	</g>
	<g>
		<path fill="#0B8082" d="M311.159,383.431c-9.851,3.286-19.947,4.764-29.811,4.764c-36.946,0-70.613-20.646-75.641-43.849
			c-4.157-19.191,3.961-32.02,13.057-40.042c-15.866,10.018-32.041,13.547-25.795,42.363c6.383,29.466,46.028,53.438,88.379,53.438
			c11.842,0,23.366-1.85,34.257-5.483c19.168-6.403,33.242-19.435,39.617-36.69c5.962-16.144,4.236-34.449-4.23-48.852
			c-3.958,1.888-7.992,3.316-12.141,4.426C352.939,335.622,346.399,371.654,311.159,383.431z"/>
	</g>
</g>
<g>
	<g>
		<g>
			<path fill="#F6F5F8" d="M334.038,412.033l2.722-7.088c33.415-87.029-13.392-110.801-15.398-111.77l-1.775-0.859l-2-0.178
				l-71.828-6.486l-52.171,27.564c-2.031,3.284-3.692,6.813-4.652,10.644c-3.153,12.584,0.989,25.205,12.311,37.508
				c36.712,39.883,121.063,49.402,124.635,49.789L334.038,412.033z"/>
			<path fill="none" d="M235.653,297.914l77.388,6.987c0,0,38.34,18.5,9.739,93.002c0,0-77.355-8.352-109.348-43.104
				C181.44,320.046,235.653,297.914,235.653,297.914"/>
		</g>
	</g>
</g>
<g>
	<g>
		<path fill="#3D3737" d="M339.295,91.664l-45.722-65.588c-14.982-0.561-92.058,0.749-119.755,60.584
			c-13.313,28.762-21.498,145.02,57.963,187.573l27.253-12.941c-1.401-53.922-0.281-125.398,3.339-158.891
			C300.579,107.953,324.875,101.878,339.295,91.664z"/>
	</g>
	<path fill="none" d="M236.707,292.818l79.609,7.21c0,0,39.433,19.095,10.011,95.978c0,0-79.569-8.622-112.478-44.484
		C180.942,315.659,236.707,292.818,236.707,292.818"/>
	<g>
		<path fill="#FCC8AC" d="M213.537,230.132l101.301,1.111l7.338,102.902c-1.439,7.85-9.033,16.33-22.161,23.289
			c-24.501,12.994-59.034,1.711-77.116-7.874c-7.341-3.889-9.43-7.907-9.362-13.733V230.132z"/>
		<path fill="#FCC8AC" d="M316.316,300.028c0,0,39.433,19.095,10.011,95.978c0,0-79.569-8.622-112.478-44.484
			c-32.907-35.862,22.858-58.703,22.858-58.703L316.316,300.028z"/>
		<path fill="#F6AB7F" d="M326.903,394.386c18.942-50.652,7.729-75.768-1.733-86.829l-1.766-24.745l-100.707-18.89L326.903,394.386z
			"/>
	</g>
	<polygon fill="#5A5656" points="399.481,92.645 399.481,157.716 353.855,133.782 354.674,85.165 	"/>
	<g>
		<g id="XMLID_534_">
			<path id="XMLID_535_" fill="#FCC8AC" d="M383.398,152.676c14.368-9.491,24.055-4.891,27.47,12.412
				c3.853,19.588-8.149,56.677-27.47,57.165V152.676z"/>
		</g>
		<g>
			<path fill="#F8B893" d="M321.428,89.808h53.13c6.692,0,12.564,9.996,16.185,17.989c2.547,5.616,3.839,11.622,3.839,17.688v105.81
				c0,16.864-12.007,41.952-20.241,52.624c-16.186,20.988-32.37,26.001-51.255,28.979
				C329.719,278.485,328.58,125.201,321.428,89.808z"/>
			<path fill="#FDDAC7" d="M390.742,107.797c-3.62-7.993-9.492-17.989-16.185-17.989h-9.84c6.692,0,12.564,9.996,16.186,17.989
				c2.546,5.616,3.831,11.622,3.831,17.688v105.809c0,16.865-12.007,41.953-20.233,52.625
				c-13.204,17.119-26.408,23.607-41.078,27.033c-0.108,0.683-0.224,1.335-0.338,1.945c18.885-2.978,35.069-7.99,51.255-28.979
				c8.234-10.672,20.241-35.76,20.241-52.625V125.485C394.581,119.419,393.289,113.413,390.742,107.797z"/>
			<path fill="#FCC8AC" d="M203.316,106.424c0.327-0.544,0.774-1.01,1.14-1.53c4.682-8.855,14.563-15.086,26.232-15.086h104.961
				c17.913,135.32,4.773,191.408-12.563,223.089c-16.569,2.62-33.587,0.389-52.318-7.088c-18.443-7.359-59.658-38.785-62.893-70.811
				l-8.124-114.731C199.458,115.238,200.857,110.535,203.316,106.424z"/>
		</g>
	</g>
	<path id="XMLID_533_" fill="#FCC8AC" d="M342.801,261.691c25.385-0.921,31.296-8.632,31.296-18.57l-34.743-86.535
		c0-9.938-10.614-17.988-21.438-17.988l-5.457,9.08c-10.823,0-19.678,8.133-19.678,18.071l30.342,77.875
		C323.122,253.562,331.977,261.691,342.801,261.691z"/>
	<g>
		<path fill="#3D3737" d="M293.573,26.076c-42.894,12.251-88.06,71.685-88.06,71.685l9.04,85.385v36.648l16.291,5.984v-52.357
			c0,0,6.519-4.486,15.479-12.714c0.815-6.732-4.888-26.924-5.7-44.127c54.583,14.21,144.196,3.738,158.859-23.935
			C376.668,29.068,293.573,26.076,293.573,26.076z"/>
	</g>
	<path id="XMLID_532_" fill="#FCC8AC" d="M208.521,173.44c-14.497-9.733-31.725-2.656-35.163,15.09
		c-3.893,20.089,15.664,50.636,35.163,51.135V173.44z"/>
	<g id="XMLID_527_">
		<g id="XMLID_530_">
			<path id="XMLID_531_" fill="#5D2E11" d="M381.108,172.276c0,5.469-4.824,9.904-10.786,9.904c-5.949,0-10.786-4.435-10.786-9.904
				c0-5.471,4.837-9.902,10.786-9.902C376.284,162.374,381.108,166.805,381.108,172.276z"/>
		</g>
		<g id="XMLID_528_">
			<path id="XMLID_529_" fill="#5D2E11" d="M303.969,184.386c0,5.467-4.836,9.901-10.785,9.901c-5.963,0-10.786-4.434-10.786-9.901
				c0-5.472,4.823-9.904,10.786-9.904C299.133,174.482,303.969,178.914,303.969,184.386z"/>
		</g>
	</g>
	<path fill="#5A5656" d="M219.44,201.558c0,0-3.665-36.177-29.328-32.81c-18.632,2.446-0.611-75.73-0.611-75.73l40.326-14.584
		l8.349,33.654l-13.848,76.294L219.44,201.558z"/>
	<path fill="#5A5656" d="M173.358,188.53c3.036-15.66,16.806-22.994,29.965-17.813l-3.573-50.45
		c-0.292-5.029,1.107-9.732,3.566-13.843c0.327-0.544,0.774-1.01,1.14-1.53c0.457-0.861,1-1.674,1.551-2.481
		c-21.393-8.327-32.188-15.753-32.188-15.753c-7.961,17.203-14.071,65.691-0.716,110.995
		C172.772,194.483,172.801,191.394,173.358,188.53z"/>
	<path fill="#5A5656" d="M214.553,183.146v36.648l16.291,5.984v-52.357c0,0,6.519-4.486,15.479-12.714
		c0.815-6.732-4.888-26.924-5.7-44.127c2.753,0.716,5.617,1.354,8.537,1.946c-3.412-3.212-7.059-5.47-10.983-6.434
		c-12.521-3.084-23.165-6.535-32.041-9.881C206.006,102.413,214.553,183.146,214.553,183.146z"/>
	<path fill="#3D3737" d="M173.818,86.66c0,0,28.798,24.765,75.341,31.865c46.545,7.101,60.189-45.524,60.189-45.524l-12.558-5.516
		l-58.407-6.014L173.818,86.66z"/>
</g>
<g>
	<path fill="#FCC8AC" d="M120.408,549.683c-19.294-2.931-35.41-9.377-43.511-16.544c-0.583,9.656-1.018,18.72-1.341,26.706
		c-0.713,17.656-0.291,35.282,1.26,52.88c0.186,2.117,0.467,17.19,37.335,20.578c24.441,2.246,43.179-10.471,44.447-16.687
		c0.274-20.245,2.744-40.42,7.646-60.173c0.842-3.389,1.73-6.811,2.656-10.244C158.997,551.142,140.668,552.76,120.408,549.683z"/>
</g>
</svg>
