<?xml version="1.0" encoding="utf-8"?>
<!-- Generator: Adobe Illustrator 16.0.0, SVG Export Plug-In . SVG Version: 6.00 Build 0)  -->
<!DOCTYPE svg PUBLIC "-//W3C//DTD SVG 1.1//EN" "http://www.w3.org/Graphics/SVG/1.1/DTD/svg11.dtd">
<svg version="1.1" id="Layer_1" xmlns="http://www.w3.org/2000/svg" xmlns:xlink="http://www.w3.org/1999/xlink" x="0px" y="0px"
	 width="202px" height="250.1px" viewBox="0 0 202 250.1" enable-background="new 0 0 202 250.1" xml:space="preserve">
<g>
	<path fill="#FFFFFF" d="M197.814,113.667l-0.01-26.188l0,0l-0.011-43.011v-3.477v-2.429v-0.009l-0.062-0.027
		c-1.649-0.949-3.34-1.883-5.101-2.799c-7.221-3.738-15.149-6.963-23.6-9.688c-20.462-6.584-44.07-10.125-68.73-10.125
		c-24.66,0-48.27,3.541-68.74,10.133c-8.45,2.725-16.38,5.949-23.6,9.688c-1.76,0.906-3.45,1.85-5.1,2.8l-0.06,0.025v0.009v2.428
		v3.477l-0.01,43.011l0,0l-0.01,26.188c-0.1,2.138-0.33,11.354,2.53,24.112c0.47,2.094,1.02,4.283,1.68,6.547
		c3.83,13.367,11.04,29.484,24.53,45.176c5.81,6.766,12.49,13.049,19.84,18.664l0.11,0.08l0.03,0.025l0.04,0.029
		c0.76,0.563,18.98,13.762,42.57,24.963l3.54,1.656l2.65,1.25l2.66-1.25l3.54-1.656c23.59-11.201,41.801-24.4,42.568-24.963
		l0.031-0.029l0.028-0.025l0.109-0.08c7.351-5.615,14.021-11.898,19.84-18.664c13.489-15.689,20.7-31.818,24.53-45.176
		c0.648-2.271,1.199-4.453,1.67-6.547C198.146,125.022,197.915,115.804,197.814,113.667z M190.075,136.82
		c-0.459,2.014-0.979,4.123-1.609,6.305c-4.562,15.93-12.5,30.543-23.579,43.43c-5.58,6.492-11.99,12.531-19.091,17.955
		l-0.221,0.172c-1.979,1.43-19.459,13.855-41.521,24.322l-3.75,1.758l-3.73-1.748c-22.72-10.785-40.57-23.625-41.67-24.432
		l-0.11-0.08c-7.08-5.416-13.49-11.455-19.07-17.947c-11.08-12.887-19.01-27.5-23.58-43.43c-0.63-2.182-1.16-4.281-1.61-6.291
		c-2.77-12.371-2.51-21.28-2.43-23.155l0.02-72.431c0.81-0.444,1.64-0.89,2.48-1.322c6.81-3.522,14.46-6.665,22.74-9.336
		c20.02-6.447,43.17-9.861,66.96-9.861c23.792,0,46.939,3.414,66.95,9.861c8.28,2.671,15.939,5.813,22.75,9.336
		c0.842,0.434,1.67,0.878,2.479,1.322l0.021,72.639C192.585,115.552,192.846,124.469,190.075,136.82z M79.756,134.24l-4.5-2.469
		l-4.09,0.535l0.86-1.479l2.23-3.82l0.08-5.906l-1.61-7.345l4.45,4.092l1.49-0.252l4.95-0.816l4.3-5.09l-0.51,7.125l3.24,7.48
		l5.95,2.414l-4.7,1.006l-2.27,0.484l-1.83,3.406l-0.53,0.988l0.29,3.262l0.11,1.197l0.36,4.029l-0.4-0.566l-2.3-3.307l-2.13-3.064
		L79.756,134.24z M139.585,114.22c0,22.748-17.569,41.183-39.249,41.183s-39.25-18.436-39.25-41.183
		c0-22.748,17.57-41.182,39.25-41.182C122.006,73.038,139.585,91.472,139.585,114.22z M135.064,114.535
		c0-3.337-0.431-6.579-1.239-9.645l-1.199,0.223l-2.67,4.195l0.188-6.566l-5.641-9.411l-3.648-2.068l3.601-0.797l0.778-1.322
		c-1.868-2.022-3.969-3.817-6.25-5.34c-5.319-3.558-11.618-5.656-18.398-5.698l0.22,0.756l1.74,5.907l2.021,1.29l6.771,4.092
		l6.433,0.861l-0.381,0.167l-6.189,2.833l-1.381,3.987l-1.01,2.896l-0.119,0.391l2.021,7.438l0,0l0,0l-0.03-0.032l0.01,0.032l0,0
		l0,0l-6.108-6.117h-8.49l-6.09,6.117l0,0l0,0l0.01-0.032l-0.03,0.032l0,0l0,0l2.02-7.438l-0.12-0.391l-1.23-3.565l-1.15-3.326
		l-6.19-2.833L82.926,91l6.43-0.859l6.77-4.093l2.02-1.29l1.74-5.907l0.22-0.756c-6.81,0.042-13.15,2.15-18.5,5.75
		c-2.24,1.51-4.32,3.284-6.17,5.276l0.78,1.333l3.6,0.798l-3.65,2.064l-5.64,9.412l0.2,6.568l-2.67-4.197l-1.21-0.221
		c-0.8,3.074-1.24,6.306-1.24,9.653c0,12.601,6.1,23.701,15.36,30.236c3.37,2.373,7.14,4.154,11.2,5.186
		c0.04,0.01,0.07,0.021,0.1,0.032l-0.05-0.097l-1.76-3.012l0,0l0.02,0.012l-0.01-0.012l2.95,1.375l2.88,1.344h8.101l3.722-1.742
		l2.1-0.977l-0.01,0.012l0.028-0.012l-1.811,3.096c5.83-1.459,11.08-4.461,15.35-8.572
		C130.716,134.741,135.064,125.174,135.064,114.535z M113.415,134.597l-0.049,0.607l-0.712,7.881l4.83-6.938l5.261-2.885l2.69-1.479
		l4.09,0.533l-3.09-5.299l-0.09-5.908l1.608-7.334l-4.45,4.094l-6.449-1.069l-4.301-5.089l0.512,7.125l-3.24,7.479l-5.95,2.412
		l6.971,1.48L113.415,134.597z M187.376,53.932c-24.222-13.355-51.562-21.321-80.58-22.358l-0.01,0.557v9.936
		c10.289,0.577,20.51,2.142,30.549,4.585c17.49,3.895,33.761,10,50.031,19.401l0.021-6.191L187.376,53.932
		C187.387,53.932,187.387,53.932,187.376,53.932z M187.387,76.711c-24.83-13.902-52.479-22.023-80.601-23.493v12.046
		c28.319,1.584,56.118,10.481,80.601,25.528V76.711z M129.165,79.123c4.58,4.153,8.351,9.273,11,15.056
		c16.101,4.607,31.53,11.542,45.812,20.596c0.608-3.178,1.188-9.631,1.33-12.968C172.896,92.438,147.734,82.67,129.165,79.123z
		 M143.896,106.573c0.391,2.484,0.608,5.034,0.608,7.638c0,1.437-0.069,2.854-0.188,4.26c10.16,3.987,25.16,10.901,36.68,18.35
		c0.91-2.787,2.311-7.838,3.15-11.834C172.415,117.767,157.876,111.031,143.896,106.573z"/>
	<path fill="#FFFFFF" d="M158.626,138.657c-12.562,27.436-34.291,49.186-59.49,63.844c-6.36,3.725-12.95,7.051-19.71,9.875
		c-3.85-2.594-7.65-5.279-11.38-8.063c32.97-12.002,64.41-36.752,79.63-70.58C151.355,135.288,155.006,136.935,158.626,138.657z
		 M89.085,218.712c3.68,2.246,7.46,4.344,11.241,6.398l0.08-0.029c15.089-8.205,29.69-18.004,42.899-29.242
		c14.391-12.969,25.83-29.264,33.45-47.488c-2.671-1.637-5.61-3.305-8.7-4.951C162.546,157.132,143.466,193.29,89.085,218.712
		 M79.605,188.474c15.84-8.646,30.379-19.988,42.4-33.881c-6.909,4.104-14.569,6.201-22.69,5.973
		c-14.19,12.295-30.76,21.844-48.22,27.949c2.82,2.971,5.9,5.971,9.25,9.004C66.926,194.927,73.366,191.906,79.605,188.474
		 M63.406,172.241c7.65-4.178,14.99-8.992,21.91-14.396c-4.05-1.533-7.82-3.674-11.22-6.307c-11.4,8.426-23.99,15.035-37.09,19.986
		c2.13,2.832,5.2,6.82,7.5,9.609C50.966,178.591,57.286,175.601,63.406,172.241"/>
	<path fill="#FFFFFF" d="M94.536,31.541v36.681c-4.24,0.65-7.76,1.563-12.2,3.62V32.349C86.366,31.939,90.436,31.677,94.536,31.541z
		 M71.116,76.731V33.829c-4.11,0.671-8.18,1.488-12.2,2.443v40.47c0,6.181,0.35,12.35,1.07,18.477
		c2.62-6.085,6.44-11.479,11.16-15.833C71.125,78.505,71.116,77.623,71.116,76.731z M48.666,87.181v-48.17
		c-4.13,1.239-8.19,2.623-12.2,4.146v44.023c0,22.496,4.39,44.74,14.64,64.664c3.49-1.951,6.91-4.049,10.26-6.271
		C52.375,127.525,48.666,107.62,48.666,87.181z M25.296,93.172V47.825c-4.05,1.855-8.01,3.859-11.9,6.001l-0.17,0.084v42.011
		c0,2.057,0.01,4.019,0.15,6.18c1.2,20.827,7.21,41.267,17.03,59.376c2.97-1.111,6.75-2.688,10.06-4.229
		C29.855,137.597,25.296,115.5,25.296,93.172z"/>
</g>
</svg>
