<?xml version="1.0" encoding="utf-8"?>
<!-- Generator: Adobe Illustrator 16.0.0, SVG Export Plug-In . SVG Version: 6.00 Build 0)  -->
<!DOCTYPE svg PUBLIC "-//W3C//DTD SVG 1.1//EN" "http://www.w3.org/Graphics/SVG/1.1/DTD/svg11.dtd">
<svg version="1.1" id="Layer_1" xmlns="http://www.w3.org/2000/svg" xmlns:xlink="http://www.w3.org/1999/xlink" x="0px" y="0px"
	 width="500px" height="650px" viewBox="0 0 500 650" enable-background="new 0 0 500 650" xml:space="preserve">
<g>
	<g>
		<g>
			<path fill="#FCC8AC" d="M380.869,433.445c-16.671,1.833-31.642,0.07-40.188-4.06c2.041,8.089,4.049,15.652,5.872,22.314
				c4.018,14.707,8.976,29.144,14.848,43.31c0.711,1.705,4.875,14.065,36.153,8.738c20.727-3.532,32.855-18.135,32.272-23.539
				c-5.059-16.752-8.297-33.926-9.409-51.279c-0.191-2.985-0.358-5.997-0.486-9.031
				C413.061,426.151,398.373,431.519,380.869,433.445z"/>
		</g>
	</g>
</g>
<g>
	<g>
		<g>
			<g>
				<g>
					<path fill="#0B8082" d="M325.24,329.732c-2.816-40.142-54.782-41.625-29.596-46.274
						c65.743-12.14,108.657,24.695,114.588,58.596c1.599,9.136,6.851,43.592,12.604,72.762c-2.157,3.675-14.886,14.41-42.395,16.637
						c-14.887,1.204-33.02-0.383-38.304-5.564C340.774,421.143,328.69,378.854,325.24,329.732z"/>
					<g>
						<path fill="#DBD056" d="M420.629,403.208c-2.549,3.886-15.248,14.173-42.173,16.354c-14.887,1.197-33.02-0.384-38.304-5.57
							c-0.9-3.124-6.083-20.628-10.751-47.56c4.902,32.009,11.728,55.956,12.736,59.457c5.284,5.182,23.417,6.769,38.304,5.564
							c27.509-2.227,40.237-12.962,42.395-16.637C422.214,411.653,421.238,406.454,420.629,403.208z"/>
					</g>
				</g>
				<path fill="#439FA1" d="M158.692,336.797c18.721-12.956,38.361-24.771,58.671-35.52l38.71-20.493
					c17.537-9.285,48.458-8.107,68.704,2.61l32.012,16.943c42.7,26.702,49.961,75.325,49.961,102.918v107.724
					c0.609,8.305-4.369,16.323-15.431,22.181l-116.054,61.433c-22.872,12.108-63.189,10.573-89.597-3.408l-41.745-22.1
					c-14.001-7.407-21.321-16.887-21.769-25.964c-0.095,0-0.095-107.725-0.095-107.725c0.228-23.512-24.554-22.581-20.481-36.864
					C108.496,374.289,131.79,355.406,158.692,336.797z"/>
				<path fill="#2E9395" d="M198.376,464.246c0,0,1.424-71.459-48.912-84.857s-8.118,92.302-8.118,92.302l22.731,28.286
					L198.376,464.246z"/>
				<path fill="#0B8082" d="M356.789,300.337l-32.012-16.943c-20.246-10.717-51.161-11.895-68.704-2.61l-39.949,21.147
					c-19.226,10.177-37.81,21.368-55.563,33.585c-25.951,17.866-48.835,35.87-57.411,58.504
					c24.395,22.756,49.014,45.303,73.728,67.761c-2.993-18.54-23.854-18.784-20.091-31.984
					c9.423-33.025,49.232-56.096,87.153-82.102l67.34-35.649c14.957-7.917,39.598-8.162,59.102-1.433
					C366.297,306.938,361.806,303.475,356.789,300.337z"/>
				<path fill="#2E9395" d="M122.061,436.037v107.084c0.542,9.077,7.862,18.557,21.863,25.964l41.745,22.1
					c3.938,2.083,8.252,3.805,12.707,5.328V464.246l-39.996-55.105L122.061,436.037z"/>
				<g>
					<path fill="#0B8082" d="M92.401,419.149c11.094-45.739,36.262-46.576,57.063-39.761c45.465,14.887,40.86,79.45,39.249,84.922
						c-6.146,20.918-14.249,51.902-17.356,79.118c-2.775,2.152-22.463,10.771-53.326,5.962
						c-22.334-3.479-36.795-10.276-40.867-17.656C77.328,526.023,78.822,475.121,92.401,419.149z"/>
				</g>
			</g>
		</g>
		<g>
			<path fill="#DBD056" d="M118.667,536.194c-19.768-3.082-33.845-8.519-41.063-14.748c-0.289,5.362-0.403,9.016-0.441,10.288
				c4.072,7.38,18.537,14.178,40.867,17.662c30.863,4.803,50.551-3.815,53.326-5.968c0.428-3.744,0.963-7.559,1.561-11.409
				C164.274,535.497,145.23,540.335,118.667,536.194z"/>
		</g>
		<path fill="none" d="M240.114,296.307l78.923,7.139c0,0,39.103,18.907,9.933,95.029c0,0-78.891-8.536-111.518-44.045
			S240.114,296.307,240.114,296.307"/>
	</g>
	<g>
		<path fill="#0B8082" d="M311.159,383.431c-9.851,3.286-19.947,4.764-29.811,4.764c-36.946,0-70.613-20.646-75.641-43.849
			c-4.157-19.191,3.961-32.02,13.057-40.042c-15.866,10.018-32.041,13.547-25.795,42.363c6.383,29.466,46.028,53.438,88.379,53.438
			c11.842,0,23.366-1.85,34.257-5.483c19.168-6.403,33.242-19.435,39.617-36.69c5.962-16.144,4.236-34.449-4.23-48.852
			c-3.958,1.888-7.992,3.316-12.141,4.426C352.939,335.622,346.399,371.654,311.159,383.431z"/>
	</g>
</g>
<g>
	<g>
		<g>
			<path fill="#F6F5F8" d="M334.038,412.033l2.722-7.088c33.415-87.029-13.392-110.801-15.398-111.77l-1.775-0.859l-2-0.178
				l-71.828-6.486l-52.171,27.564c-2.031,3.284-3.692,6.813-4.652,10.644c-3.153,12.584,0.989,25.205,12.311,37.508
				c36.712,39.883,121.063,49.402,124.635,49.789L334.038,412.033z"/>
			<path fill="none" d="M235.653,297.914l77.388,6.987c0,0,38.34,18.5,9.739,93.002c0,0-77.355-8.352-109.348-43.104
				C181.44,320.046,235.653,297.914,235.653,297.914"/>
		</g>
	</g>
</g>
<g>
	<path fill="#FCC8AC" d="M120.408,549.683c-19.294-2.931-35.41-9.377-43.511-16.544c-0.583,9.656-1.018,18.72-1.341,26.706
		c-0.713,17.656-0.291,35.282,1.26,52.88c0.186,2.117,0.467,17.19,37.335,20.578c24.441,2.246,43.179-10.471,44.447-16.687
		c0.274-20.245,2.744-40.42,7.646-60.173c0.842-3.389,1.73-6.811,2.656-10.244C158.997,551.142,140.668,552.76,120.408,549.683z"/>
</g>
<g>
	<g>
		<path fill="#AC835F" d="M337.427,92.214l-46.225-66.113c-15.149-0.566-93.083,0.755-121.087,61.069
			c-13.465,28.992-21.738,146.181,58.608,189.074l27.557-13.047c-1.417-54.352-0.286-126.399,3.376-160.161
			C298.292,108.634,322.853,102.51,337.427,92.214z"/>
	</g>
	<path fill="none" d="M233.703,294.979l80.488,7.268c0,0,39.878,19.244,10.13,96.741c0,0-80.457-8.688-113.73-44.837
		C177.317,318.001,233.703,294.979,233.703,294.979"/>
	<g>
		<path fill="#FCC8AC" d="M210.274,231.79l102.43,1.12l7.419,103.725c-1.455,7.911-9.134,16.464-22.407,23.478
			c-24.78,13.097-59.692,1.725-77.974-7.937c-7.423-3.923-9.539-7.969-9.468-13.843V231.79z"/>
		<path fill="#FCC8AC" d="M314.191,302.247c0,0,39.878,19.244,10.13,96.741c0,0-80.457-8.688-113.73-44.837
			c-33.274-36.149,23.112-59.172,23.112-59.172L314.191,302.247z"/>
		<path fill="#F6AB7F" d="M324.903,397.358c19.147-51.062,7.814-76.376-1.753-87.526l-1.786-24.942l-101.827-19.039L324.903,397.358
			z"/>
	</g>
	<polygon fill="#9A7153" points="398.289,93.203 398.289,158.795 352.161,134.669 352.983,85.663 	"/>
	<g>
		<g id="XMLID_520_">
			<path id="XMLID_524_" fill="#FCC8AC" d="M382.026,153.714c14.528-9.567,24.321-4.931,27.771,12.51
				c3.899,19.745-8.234,57.132-27.771,57.624V153.714z"/>
		</g>
		<g>
			<path fill="#F8B893" d="M319.367,90.343h53.727c6.76,0,12.697,10.076,16.366,18.134c2.573,5.66,3.874,11.713,3.874,17.829
				v106.656c0,16.998-12.142,42.286-20.46,53.044c-16.372,21.157-32.737,26.21-51.839,29.211
				C327.749,280.53,326.598,126.02,319.367,90.343z"/>
			<path fill="#FDDAC7" d="M389.46,108.478c-3.669-8.058-9.606-18.134-16.366-18.134h-9.955c6.767,0,12.698,10.076,16.365,18.134
				c2.575,5.66,3.876,11.713,3.876,17.829V232.96c0,17-12.137,42.289-20.461,53.046c-13.351,17.258-26.702,23.796-41.534,27.251
				c-0.11,0.687-0.227,1.346-0.35,1.959c19.102-3.001,35.467-8.054,51.839-29.211c8.318-10.758,20.46-36.046,20.46-53.046V126.307
				C393.334,120.191,392.033,114.137,389.46,108.478z"/>
			<path fill="#FCC8AC" d="M199.941,107.092c0.329-0.547,0.782-1.018,1.151-1.542c4.734-8.925,14.725-15.207,26.524-15.207h106.128
				c18.105,136.403,4.826,192.94-12.71,224.874c-16.747,2.638-33.954,0.394-52.9-7.146c-18.642-7.418-60.315-39.096-63.585-71.375
				l-8.215-115.65C196.041,115.976,197.454,111.236,199.941,107.092z"/>
		</g>
	</g>
	<path id="XMLID_518_" fill="#FCC8AC" d="M340.978,263.6c25.667-0.927,31.645-8.7,31.645-18.717l-35.131-87.228
		c0-10.018-10.731-18.131-21.677-18.131l-5.518,9.153c-10.944,0-19.896,8.197-19.896,18.214l30.68,78.498
		C321.08,255.407,330.032,263.6,340.978,263.6z"/>
	<g>
		<path fill="#AC835F" d="M291.202,26.101c-43.372,12.35-89.04,72.258-89.04,72.258l9.137,86.067v36.944l16.476,6.029v-52.774
			c0,0,6.592-4.523,15.65-12.817c0.828-6.785-4.942-27.139-5.764-44.48c55.189,14.325,145.801,3.769,160.627-24.125
			C375.223,29.117,291.202,26.101,291.202,26.101z"/>
	</g>
	<path id="XMLID_516_" fill="#FCC8AC" d="M205.203,174.644c-14.661-9.81-32.077-2.676-35.555,15.212
		c-3.936,20.249,15.838,51.04,35.555,51.543V174.644z"/>
	<g id="XMLID_511_">
		<g id="XMLID_514_">
			<path id="XMLID_515_" fill="#5D2E11" d="M379.718,173.471c0,5.512-4.884,9.982-10.905,9.982c-6.029,0-10.906-4.47-10.906-9.982
				c0-5.514,4.877-9.982,10.906-9.982C374.834,163.489,379.718,167.957,379.718,173.471z"/>
		</g>
		<g id="XMLID_512_">
			<path id="XMLID_513_" fill="#5D2E11" d="M301.714,185.676c0,5.513-4.884,9.982-10.906,9.982c-6.028,0-10.912-4.469-10.912-9.982
				c0-5.514,4.884-9.982,10.912-9.982C296.83,175.694,301.714,180.162,301.714,185.676z"/>
		</g>
	</g>
	<path fill="#9A7153" d="M216.245,202.986c0,0-3.709-36.466-29.655-33.073c-18.842,2.465-0.617-76.335-0.617-76.335l40.774-14.7
		l8.441,33.923l-14.001,76.903L216.245,202.986z"/>
	<path fill="#9A7153" d="M169.648,189.856c3.07-15.787,16.994-23.178,30.299-17.957l-3.613-50.853
		c-0.294-5.071,1.119-9.81,3.607-13.955c0.329-0.547,0.782-1.018,1.151-1.542c0.462-0.868,1.011-1.687,1.568-2.501
		c-21.63-8.393-32.546-15.879-32.546-15.879c-8.051,17.341-14.228,66.216-0.725,111.883
		C169.057,195.857,169.085,192.742,169.648,189.856z"/>
	<path fill="#9A7153" d="M211.3,184.427v36.944l16.476,6.029v-52.774c0,0,6.592-4.523,15.65-12.817
		c0.828-6.785-4.942-27.139-5.764-44.48c2.782,0.723,5.679,1.364,8.629,1.963c-3.447-3.239-7.134-5.515-11.104-6.486
		c-12.658-3.108-23.422-6.586-32.4-9.961C202.661,103.049,211.3,184.427,211.3,184.427z"/>
	<path fill="#AC835F" d="M170.115,87.17c0,0,29.118,24.963,76.176,32.121c47.065,7.158,60.863-45.889,60.863-45.889l-12.692-5.56
		l-59.063-6.062L170.115,87.17z"/>
</g>
</svg>
