<?xml version="1.0" encoding="utf-8"?>
<!-- Generator: Adobe Illustrator 16.0.0, SVG Export Plug-In . SVG Version: 6.00 Build 0)  -->
<!DOCTYPE svg PUBLIC "-//W3C//DTD SVG 1.1//EN" "http://www.w3.org/Graphics/SVG/1.1/DTD/svg11.dtd">
<svg version="1.1" id="Layer_1" xmlns="http://www.w3.org/2000/svg" xmlns:xlink="http://www.w3.org/1999/xlink" x="0px" y="0px"
	 width="500px" height="650px" viewBox="0 0 500 650" enable-background="new 0 0 500 650" xml:space="preserve">
<g>
	<g>
		<g>
			<path fill="#FCC8AC" d="M380.869,433.445c-16.671,1.833-31.642,0.07-40.188-4.06c2.041,8.089,4.049,15.652,5.872,22.314
				c4.018,14.707,8.976,29.144,14.848,43.31c0.711,1.705,4.875,14.065,36.153,8.738c20.727-3.532,32.855-18.135,32.272-23.539
				c-5.059-16.752-8.297-33.926-9.409-51.279c-0.191-2.985-0.358-5.997-0.486-9.031
				C413.061,426.151,398.373,431.519,380.869,433.445z"/>
		</g>
	</g>
</g>
<g>
	<g>
		<g>
			<g>
				<g>
					<path fill="#0B8082" d="M325.24,329.732c-2.816-40.142-54.782-41.625-29.596-46.274
						c65.743-12.14,108.657,24.695,114.588,58.596c1.599,9.136,6.851,43.592,12.604,72.762c-2.157,3.675-14.886,14.41-42.395,16.637
						c-14.887,1.204-33.02-0.383-38.304-5.564C340.774,421.143,328.69,378.854,325.24,329.732z"/>
					<g>
						<path fill="#DBD056" d="M420.629,403.208c-2.549,3.886-15.248,14.173-42.173,16.354c-14.887,1.197-33.02-0.384-38.304-5.57
							c-0.9-3.124-6.083-20.628-10.751-47.56c4.902,32.009,11.728,55.956,12.736,59.457c5.284,5.182,23.417,6.769,38.304,5.564
							c27.509-2.227,40.237-12.962,42.395-16.637C422.214,411.653,421.238,406.454,420.629,403.208z"/>
					</g>
				</g>
				<path fill="#439FA1" d="M158.692,336.797c18.721-12.956,38.361-24.771,58.671-35.52l38.71-20.493
					c17.537-9.285,48.458-8.107,68.704,2.61l32.012,16.943c42.7,26.702,49.961,75.325,49.961,102.918v107.724
					c0.609,8.305-4.369,16.323-15.431,22.181l-116.054,61.433c-22.872,12.108-63.189,10.573-89.597-3.408l-41.745-22.1
					c-14.001-7.407-21.321-16.887-21.769-25.964c-0.095,0-0.095-107.725-0.095-107.725c0.228-23.512-24.554-22.581-20.481-36.864
					C108.496,374.289,131.79,355.406,158.692,336.797z"/>
				<path fill="#2E9395" d="M198.376,464.246c0,0,1.424-71.459-48.912-84.857s-8.118,92.302-8.118,92.302l22.731,28.286
					L198.376,464.246z"/>
				<path fill="#0B8082" d="M356.789,300.337l-32.012-16.943c-20.246-10.717-51.161-11.895-68.704-2.61l-39.949,21.147
					c-19.226,10.177-37.81,21.368-55.563,33.585c-25.951,17.866-48.835,35.87-57.411,58.504
					c24.395,22.756,49.014,45.303,73.728,67.761c-2.993-18.54-23.854-18.784-20.091-31.984
					c9.423-33.025,49.232-56.096,87.153-82.102l67.34-35.649c14.957-7.917,39.598-8.162,59.102-1.433
					C366.297,306.938,361.806,303.475,356.789,300.337z"/>
				<path fill="#2E9395" d="M122.061,436.037v107.084c0.542,9.077,7.862,18.557,21.863,25.964l41.745,22.1
					c3.938,2.083,8.252,3.805,12.707,5.328V464.246l-39.996-55.105L122.061,436.037z"/>
				<g>
					<path fill="#0B8082" d="M92.401,419.149c11.094-45.739,36.262-46.576,57.063-39.761c45.465,14.887,40.86,79.45,39.249,84.922
						c-6.146,20.918-14.249,51.902-17.356,79.118c-2.775,2.152-22.463,10.771-53.326,5.962
						c-22.334-3.479-36.795-10.276-40.867-17.656C77.328,526.023,78.822,475.121,92.401,419.149z"/>
				</g>
			</g>
		</g>
		<g>
			<path fill="#DBD056" d="M118.667,536.194c-19.768-3.082-33.845-8.519-41.063-14.748c-0.289,5.362-0.403,9.016-0.441,10.288
				c4.072,7.38,18.537,14.178,40.867,17.662c30.863,4.803,50.551-3.815,53.326-5.968c0.428-3.744,0.963-7.559,1.561-11.409
				C164.274,535.497,145.23,540.335,118.667,536.194z"/>
		</g>
		<path fill="none" d="M240.114,296.307l78.923,7.139c0,0,39.103,18.907,9.933,95.029c0,0-78.891-8.536-111.518-44.045
			S240.114,296.307,240.114,296.307"/>
	</g>
	<g>
		<path fill="#0B8082" d="M311.159,383.431c-9.851,3.286-19.947,4.764-29.811,4.764c-36.946,0-70.613-20.646-75.641-43.849
			c-4.157-19.191,3.961-32.02,13.057-40.042c-15.866,10.018-32.041,13.547-25.795,42.363c6.383,29.466,46.028,53.438,88.379,53.438
			c11.842,0,23.366-1.85,34.257-5.483c19.168-6.403,33.242-19.435,39.617-36.69c5.962-16.144,4.236-34.449-4.23-48.852
			c-3.958,1.888-7.992,3.316-12.141,4.426C352.939,335.622,346.399,371.654,311.159,383.431z"/>
	</g>
</g>
<g>
	<g>
		<g>
			<path fill="#F6F5F8" d="M334.038,412.033l2.722-7.088c33.415-87.029-13.392-110.801-15.398-111.77l-1.775-0.859l-2-0.178
				l-71.828-6.486l-52.171,27.564c-2.031,3.284-3.692,6.813-4.652,10.644c-3.153,12.584,0.989,25.205,12.311,37.508
				c36.712,39.883,121.063,49.402,124.635,49.789L334.038,412.033z"/>
			<path fill="none" d="M235.653,297.914l77.388,6.987c0,0,38.34,18.5,9.739,93.002c0,0-77.355-8.352-109.348-43.104
				C181.44,320.046,235.653,297.914,235.653,297.914"/>
		</g>
	</g>
</g>
<g>
	<path fill="#FCC8AC" d="M120.408,549.683c-19.294-2.931-35.41-9.377-43.511-16.544c-0.583,9.656-1.018,18.72-1.341,26.706
		c-0.713,17.656-0.291,35.282,1.26,52.88c0.186,2.117,0.467,17.19,37.335,20.578c24.441,2.246,43.179-10.471,44.447-16.687
		c0.274-20.245,2.744-40.42,7.646-60.173c0.842-3.389,1.73-6.811,2.656-10.244C158.997,551.142,140.668,552.76,120.408,549.683z"/>
</g>
<g>
	<path fill="#C86F28" d="M253.522,211.489l-92.872-83.196c-3.043,45.828,8.545,113.663,66.158,143.766l27.294-12.647
		C253.701,244.412,253.514,228.017,253.522,211.489z"/>
	<path fill="#FFFFFF" d="M340.37,409.565l2.799-7.15c34.421-87.746-13.792-111.717-15.861-112.691l-1.825-0.866l-2.063-0.179
		l-73.986-6.541l-53.738,27.792c-2.091,3.311-3.802,6.869-4.792,10.73c-3.248,12.688,1.019,25.417,12.681,37.816
		c37.814,40.217,124.704,49.811,128.381,50.201L340.37,409.565z"/>
	<path fill="none" d="M239.025,294.497l79.711,7.048c0,0,39.494,18.655,10.032,93.771c0,0-79.679-8.424-112.632-43.463
		C183.184,316.814,239.025,294.497,239.025,294.497"/>
	<g>
		<path fill="#FCC8AC" d="M215.822,233.25l101.44,1.085l7.348,100.545c-1.44,7.665-9.045,15.953-22.19,22.752
			c-24.535,12.695-59.115,1.677-77.222-7.688c-7.352-3.805-9.442-7.73-9.376-13.416V233.25z"/>
		<path fill="#FCC8AC" d="M318.736,301.545c0,0,39.494,18.655,10.032,93.771c0,0-79.679-8.424-112.632-43.463
			c-32.953-35.039,22.889-57.357,22.889-57.357L318.736,301.545z"/>
		<path fill="#F6AB7F" d="M329.352,393.732c18.961-49.488,7.732-74.031-1.743-84.833l-1.768-24.181l-100.844-18.45L329.352,393.732z
			"/>
	</g>
	<g>
		<g>
			<path fill="#E58B24" d="M253.541,203.198c0.184-38.787,1.483-77.177,3.908-99.029c38.257,5.428,62.587-0.511,77.014-10.484
				l-45.777-64.082c-15.003-0.55-92.18,0.729-119.919,59.192c-3.119,6.576-5.942,17.871-7.44,31.797L253.541,203.198z"/>
		</g>
		<polygon fill="#C86F28" points="394.738,94.637 394.738,158.213 349.057,134.829 349.869,87.332 		"/>
		<g>
			<g id="XMLID_658_">
				<path id="XMLID_659_" fill="#FCC8AC" d="M378.634,153.295c14.387-9.273,24.093-4.78,27.501,12.125
					c3.869,19.138-8.148,55.377-27.501,55.854V153.295z"/>
			</g>
			<g>
				<path fill="#F8B893" d="M316.578,91.871h53.208c6.701,0,12.576,9.767,16.207,17.577c2.551,5.486,3.837,11.351,3.837,17.279
					v103.38c0,16.475-12.023,40.989-20.262,51.417c-16.213,20.502-32.428,25.398-51.338,28.313
					C324.88,276.214,323.739,126.451,316.578,91.871z"/>
				<path fill="#FDDAC7" d="M385.993,109.447c-3.631-7.81-9.506-17.577-16.207-17.577h-9.858c6.701,0,12.575,9.767,16.208,17.577
					c2.549,5.486,3.837,11.351,3.837,17.279v103.38c0,16.475-12.019,40.989-20.263,51.417
					c-13.222,16.722-26.444,23.062-41.134,26.408c-0.115,0.672-0.23,1.31-0.346,1.906c18.91-2.916,35.125-7.811,51.338-28.313
					c8.238-10.428,20.262-34.942,20.262-51.417v-103.38C389.83,120.798,388.544,114.934,385.993,109.447z"/>
				<path fill="#FCC8AC" d="M198.305,108.099c0.327-0.527,0.776-0.981,1.141-1.492c4.689-8.647,14.583-14.736,26.268-14.736h105.104
					c17.931,132.21,4.785,187.012-12.588,217.966c-16.592,2.554-33.619,0.379-52.389-6.927
					c-18.463-7.196-59.734-37.897-62.972-69.183l-8.132-112.097C194.442,116.713,195.842,112.122,198.305,108.099z"/>
			</g>
		</g>
		<path id="XMLID_657_" fill="#FCC8AC" d="M337.98,259.802c25.419-0.9,31.345-8.43,31.345-18.139l-34.798-84.551
			c0-9.709-10.635-17.571-21.467-17.571l-5.465,8.872c-10.838,0-19.704,7.942-19.704,17.651l30.384,76.088
			C318.275,251.861,327.147,259.802,337.98,259.802z"/>
		<g>
			<path fill="#E58B24" d="M288.686,29.602c-42.953,11.97-88.18,70.038-88.18,70.038l9.052,83.42v35.81l16.313,5.846v-51.152
				c0,0,6.528-4.384,15.5-12.424c0.816-6.576-4.895-26.312-5.708-43.114c54.656,13.882,144.393,3.65,159.076-23.39
				C371.9,32.523,288.686,29.602,288.686,29.602z"/>
		</g>
		<path id="XMLID_656_" fill="#FCC8AC" d="M203.517,173.581c-14.516-9.509-31.768-2.594-35.211,14.742
			c-3.898,19.626,15.685,49.473,35.211,49.96V173.581z"/>
		<g id="XMLID_651_">
			<g id="XMLID_654_">
				<path id="XMLID_655_" fill="#5D2E11" d="M376.347,172.439c0,5.348-4.837,9.676-10.801,9.676c-5.971,0-10.801-4.328-10.801-9.676
					c0-5.343,4.83-9.676,10.801-9.676C371.51,162.764,376.347,167.097,376.347,172.439z"/>
			</g>
			<g id="XMLID_652_">
				<path id="XMLID_653_" fill="#5D2E11" d="M299.089,184.272c0,5.342-4.83,9.674-10.801,9.674c-5.958,0-10.801-4.332-10.801-9.674
					c0-5.343,4.843-9.676,10.801-9.676C294.259,174.597,299.089,178.93,299.089,184.272z"/>
			</g>
		</g>
		<path fill="#C86F28" d="M244.211,119.926c-3.417-3.138-59.9-24.245-60.175-23.017c-10.07-4.683-15.269-8.115-15.269-8.115
			c-7.972,16.803-14.09,64.18-0.717,108.447c-0.331-3.104-0.301-6.118,0.256-8.918c2.898-14.599,15.585-21.656,28.187-17.892
			c1.784,0.751,3.395,1.739,4.85,2.903c5.573,4.453,8.215,11.172,8.215,17.864v27.671l16.313,5.846v-51.152
			c0,0,6.528-4.384,15.5-12.424c0.816-6.576-4.895-26.312-5.708-43.119C238.42,118.727,241.287,119.347,244.211,119.926z"/>
		<path fill="#E58B24" d="M168.767,88.794c0,0,28.837,24.194,75.444,31.131c46.607,6.938,60.271-44.479,60.271-44.479l-12.568-5.389
			l-58.494-5.876L168.767,88.794z"/>
	</g>
</g>
</svg>
