<?xml version="1.0" encoding="utf-8"?>
<!-- Generator: Adobe Illustrator 16.0.0, SVG Export Plug-In . SVG Version: 6.00 Build 0)  -->
<!DOCTYPE svg PUBLIC "-//W3C//DTD SVG 1.1//EN" "http://www.w3.org/Graphics/SVG/1.1/DTD/svg11.dtd">
<svg version="1.1" id="Layer_1" xmlns="http://www.w3.org/2000/svg" xmlns:xlink="http://www.w3.org/1999/xlink" x="0px" y="0px"
	 width="500px" height="650px" viewBox="0 0 500 650" enable-background="new 0 0 500 650" xml:space="preserve">
<g>
	<path fill="#FCC8AC" d="M120.408,549.683c-19.294-2.931-35.41-9.377-43.511-16.544c-0.583,9.656-1.018,18.72-1.341,26.706
		c-0.713,17.656-0.291,35.282,1.26,52.88c0.186,2.117,0.467,17.19,37.335,20.578c24.441,2.246,43.179-10.471,44.447-16.687
		c0.274-20.245,2.744-40.42,7.646-60.173c0.842-3.389,1.73-6.811,2.656-10.244C158.997,551.142,140.668,552.76,120.408,549.683z"/>
</g>
<g>
	<g>
		<g>
			<path fill="#FCC8AC" d="M380.869,433.445c-16.671,1.833-31.642,0.07-40.188-4.06c2.041,8.089,4.049,15.652,5.872,22.314
				c4.018,14.707,8.976,29.144,14.848,43.31c0.711,1.705,4.875,14.065,36.153,8.738c20.727-3.532,32.855-18.135,32.272-23.539
				c-5.059-16.752-8.297-33.926-9.409-51.279c-0.191-2.985-0.358-5.997-0.486-9.031
				C413.061,426.151,398.373,431.519,380.869,433.445z"/>
		</g>
	</g>
</g>
<g>
	<path fill="#B57E5B" d="M381.423,434.752c-16.531,1.485-31.49-0.928-40.132-5.73c2.29,8.948,4.531,17.33,6.559,24.711
		c4.475,16.296,9.864,32.324,16.163,48.088c0.76,1.894,5.299,15.621,36.267,10.756c20.529-3.228,32.133-18.898,31.382-24.857
		c-5.572-18.576-9.34-37.561-11.004-56.679c-0.285-3.284-0.547-6.604-0.771-9.941C413.238,427.753,398.794,433.189,381.423,434.752z
		"/>
</g>
<g>
	<g>
		<g>
			<g>
				<g>
					<path fill="#0B8082" d="M325.24,329.732c-2.816-40.142-54.782-41.625-29.596-46.274
						c65.743-12.14,108.657,24.695,114.588,58.596c1.599,9.136,6.851,43.592,12.604,72.762c-2.157,3.675-14.886,14.41-42.395,16.637
						c-14.887,1.204-33.02-0.383-38.304-5.564C340.774,421.143,328.69,378.854,325.24,329.732z"/>
					<g>
						<path fill="#DBD056" d="M420.629,403.208c-2.549,3.886-15.248,14.173-42.173,16.354c-14.887,1.197-33.02-0.384-38.304-5.57
							c-0.9-3.124-6.083-20.628-10.751-47.56c4.902,32.009,11.728,55.956,12.736,59.457c5.284,5.182,23.417,6.769,38.304,5.564
							c27.509-2.227,40.237-12.962,42.395-16.637C422.214,411.653,421.238,406.454,420.629,403.208z"/>
					</g>
				</g>
				<path fill="#439FA1" d="M158.692,336.797c18.721-12.956,38.361-24.771,58.671-35.52l38.71-20.493
					c17.537-9.285,48.458-8.107,68.704,2.61l32.012,16.943c42.7,26.702,49.961,75.325,49.961,102.918v107.724
					c0.609,8.305-4.369,16.323-15.431,22.181l-116.054,61.433c-22.872,12.108-63.189,10.573-89.597-3.408l-41.745-22.1
					c-14.001-7.407-21.321-16.887-21.769-25.964c-0.095,0-0.095-107.725-0.095-107.725c0.228-23.512-24.554-22.581-20.481-36.864
					C108.496,374.289,131.79,355.406,158.692,336.797z"/>
				<path fill="#2E9395" d="M198.376,464.246c0,0,1.424-71.459-48.912-84.857s-8.118,92.302-8.118,92.302l22.731,28.286
					L198.376,464.246z"/>
				<path fill="#0B8082" d="M356.789,300.337l-32.012-16.943c-20.246-10.717-51.161-11.895-68.704-2.61l-39.949,21.147
					c-19.226,10.177-37.81,21.368-55.563,33.585c-25.951,17.866-48.835,35.87-57.411,58.504
					c24.395,22.756,49.014,45.303,73.728,67.761c-2.993-18.54-23.854-18.784-20.091-31.984
					c9.423-33.025,49.232-56.096,87.153-82.102l67.34-35.649c14.957-7.917,39.598-8.162,59.102-1.433
					C366.297,306.938,361.806,303.475,356.789,300.337z"/>
				<path fill="#2E9395" d="M122.061,436.037v107.084c0.542,9.077,7.862,18.557,21.863,25.964l41.745,22.1
					c3.938,2.083,8.252,3.805,12.707,5.328V464.246l-39.996-55.105L122.061,436.037z"/>
				<g>
					<path fill="#0B8082" d="M92.401,419.149c11.094-45.739,36.262-46.576,57.063-39.761c45.465,14.887,40.86,79.45,39.249,84.922
						c-6.146,20.918-14.249,51.902-17.356,79.118c-2.775,2.152-22.463,10.771-53.326,5.962
						c-22.334-3.479-36.795-10.276-40.867-17.656C77.328,526.023,78.822,475.121,92.401,419.149z"/>
				</g>
			</g>
		</g>
		<g>
			<path fill="#DBD056" d="M118.667,536.194c-19.768-3.082-33.845-8.519-41.063-14.748c-0.289,5.362-0.403,9.016-0.441,10.288
				c4.072,7.38,18.537,14.178,40.867,17.662c30.863,4.803,50.551-3.815,53.326-5.968c0.428-3.744,0.963-7.559,1.561-11.409
				C164.274,535.497,145.23,540.335,118.667,536.194z"/>
		</g>
		<path fill="none" d="M240.114,296.307l78.923,7.139c0,0,39.103,18.907,9.933,95.029c0,0-78.891-8.536-111.518-44.045
			S240.114,296.307,240.114,296.307"/>
	</g>
	<g>
		<path fill="#0B8082" d="M311.159,383.431c-9.851,3.286-19.947,4.764-29.811,4.764c-36.946,0-70.613-20.646-75.641-43.849
			c-4.157-19.191,3.961-32.02,13.057-40.042c-15.866,10.018-32.041,13.547-25.795,42.363c6.383,29.466,46.028,53.438,88.379,53.438
			c11.842,0,23.366-1.85,34.257-5.483c19.168-6.403,33.242-19.435,39.617-36.69c5.962-16.144,4.236-34.449-4.23-48.852
			c-3.958,1.888-7.992,3.316-12.141,4.426C352.939,335.622,346.399,371.654,311.159,383.431z"/>
	</g>
</g>
<g>
	<g>
		<g>
			<path fill="#F6F5F8" d="M334.038,412.033l2.722-7.088c33.415-87.029-13.392-110.801-15.398-111.77l-1.775-0.859l-2-0.178
				l-71.828-6.486l-52.171,27.564c-2.031,3.284-3.692,6.813-4.652,10.644c-3.153,12.584,0.989,25.205,12.311,37.508
				c36.712,39.883,121.063,49.402,124.635,49.789L334.038,412.033z"/>
			<path fill="none" d="M235.653,297.914l77.388,6.987c0,0,38.34,18.5,9.739,93.002c0,0-77.355-8.352-109.348-43.104
				C181.44,320.046,235.653,297.914,235.653,297.914"/>
		</g>
	</g>
</g>
<g>
	<g>
		<g>
			<path fill="#3D3737" d="M258.521,151.467c0.643-17.349,1.552-32.604,2.737-43.642c37.688,5.496,61.646-0.518,75.862-10.628
				l-45.089-64.928c-14.777-0.555-90.798,0.741-118.113,59.975c-3.274,7.09-6.227,19.549-7.609,34.911
				C197.12,135.003,227.728,143.556,258.521,151.467z"/>
			<path fill="#BA987A" d="M258.3,157.589c-30.874-7.909-61.559-16.484-92.451-24.377c-2.776,46.413,8.884,114.424,65.237,144.712
				l26.878-12.811C257.101,231.584,257.213,191.206,258.3,157.589z"/>
		</g>
		<g>
			<path fill="#2B7044" d="M319.068,290.425l2.024,0.182l1.805,0.878c0.802,0.389,8.607,4.396,15.737,14.467
				c9.13,0.239,18.486,1.761,26.898,4.677c-4.063-3.676-8.531-7.138-13.522-10.275l-31.845-16.939
				c-20.141-10.716-50.9-11.893-68.348-2.612c0,0-17.225,8.524-39.928,21.243l34.306-18.248L319.068,290.425z"/>
			<path fill="#2B7044" d="M193.265,311.957c-0.228,0.373-0.397,0.781-0.612,1.163c6.649-3.936,13.143-7.656,19.238-11.073
				L193.265,311.957z"/>
			<path fill="#FFFFFF" d="M238.998,348.215l0.751-0.513l66.99-35.642c8.431-4.485,19.965-6.422,31.896-6.108
				c-7.13-10.072-14.936-14.079-15.737-14.467l-1.805-0.878l-2.024-0.182l-72.872-6.626l-34.306,18.248
				c-6.095,3.417-12.588,7.137-19.238,11.073c-1.755,3.036-3.238,6.234-4.108,9.709c-3.2,12.856,1.003,25.747,12.493,38.316
				c3.559,3.896,7.571,7.507,11.906,10.854C220.314,363.11,229.028,355.074,238.998,348.215z"/>
		</g>
		<path fill="none" d="M235.944,296.325l78.511,7.136c0,0,38.9,18.902,9.881,95.013c0,0-78.48-8.537-110.938-44.038
			C180.942,318.932,235.944,296.325,235.944,296.325"/>
		<g>
			<path fill="#A2673E" d="M213.089,234.269l99.915,1.098l7.237,101.869c-1.42,7.768-8.909,16.164-21.856,23.055
				c-24.173,12.86-58.227,1.696-76.063-7.798c-7.238-3.849-9.301-7.825-9.232-13.594V234.269z"/>
			<path fill="#A2673E" d="M314.455,303.461c0,0,38.9,18.902,9.881,95.013c0,0-78.48-8.537-110.938-44.038
				c-32.457-35.503,22.545-58.111,22.545-58.111L314.455,303.461z"/>
			<path fill="#904D21" d="M324.904,396.868c18.677-50.144,7.623-75.006-1.71-85.956l-1.741-24.494l-99.328-18.696L324.904,396.868z
				"/>
		</g>
		<polygon fill="#BA987A" points="396.489,98.167 396.489,162.583 351.493,138.891 352.295,90.763 		"/>
		<g>
			<g id="XMLID_26_">
				<path id="XMLID_27_" fill="#B57E5B" d="M380.626,157.594c14.171-9.395,23.725-4.843,27.087,12.286
					c3.806,19.391-8.032,56.107-27.087,56.589V157.594z"/>
			</g>
			<g>
				<path fill="#A1673E" d="M319.503,95.358h52.408c6.595,0,12.387,9.896,15.964,17.809c2.513,5.558,3.779,11.503,3.779,17.51
					V235.42c0,16.696-11.844,41.528-19.957,52.093c-15.97,20.777-31.934,25.739-50.566,28.688
					C327.681,282.136,326.558,130.394,319.503,95.358z"/>
				<path fill="#BE8F71" d="M387.875,113.167c-3.577-7.913-9.369-17.809-15.964-17.809h-9.71c6.601,0,12.387,9.896,15.964,17.809
					c2.512,5.558,3.78,11.503,3.78,17.51V235.42c0,16.696-11.839,41.528-19.959,52.093c-13.022,16.949-26.046,23.372-40.514,26.764
					c-0.107,0.673-0.221,1.318-0.342,1.924c18.633-2.949,34.597-7.911,50.566-28.688c8.113-10.564,19.957-35.396,19.957-52.093
					V130.677C391.654,124.671,390.388,118.725,387.875,113.167z"/>
				<path fill="#B57E5B" d="M203.013,111.808c0.321-0.538,0.763-1,1.123-1.515c4.62-8.765,14.361-14.934,25.871-14.934H333.53
					c17.66,133.961,4.707,189.48-12.399,220.843c-16.336,2.593-33.119,0.385-51.595-7.018c-18.19-7.286-58.844-38.396-62.031-70.096
					l-8.013-113.577C199.208,120.531,200.583,115.877,203.013,111.808z"/>
			</g>
		</g>
		<path id="XMLID_25_" fill="#B57E5B" d="M340.584,265.512c25.037-0.913,30.867-8.547,30.867-18.38l-34.268-85.667
			c0-9.838-10.469-17.807-21.145-17.807l-5.382,8.993c-10.676,0-19.409,8.046-19.409,17.885l29.928,77.091
			C321.176,257.462,329.908,265.512,340.584,265.512z"/>
		<g>
			<path fill="#3D3737" d="M292.031,32.268c-42.307,12.129-86.854,70.964-86.854,70.964s9.105,19.646,34.628,18.627
				c53.833,14.068,142.221,3.702,156.684-23.692C373.987,35.23,292.031,32.268,292.031,32.268z"/>
		</g>
		<path id="XMLID_24_" fill="#B57E5B" d="M208.143,178.148c-14.298-9.635-31.291-2.629-34.678,14.938
			c-3.843,19.886,15.446,50.126,34.678,50.624V178.148z"/>
		<g id="XMLID_19_">
			<g id="XMLID_22_">
				<path id="XMLID_23_" fill="#5D2E11" d="M378.373,176.996c0,5.414-4.764,9.805-10.638,9.805s-10.639-4.391-10.639-9.805
					c0-5.412,4.765-9.802,10.639-9.802S378.373,171.584,378.373,176.996z"/>
			</g>
			<g id="XMLID_20_">
				<path id="XMLID_21_" fill="#5D2E11" d="M302.283,188.982c0,5.415-4.763,9.803-10.637,9.803c-5.881,0-10.639-4.389-10.639-9.803
					c0-5.415,4.758-9.802,10.639-9.802C297.521,179.18,302.283,183.567,302.283,188.982z"/>
			</g>
		</g>
		<path fill="#BA987A" d="M218.913,205.984c0,0-3.615-35.814-28.93-32.481c-18.374,2.42-0.599-74.967-0.599-74.967l39.77-14.437
			l8.24,33.318l-13.661,75.521L218.913,205.984z"/>
		<path fill="#BA987A" d="M173.465,193.086c2.99-15.503,16.575-22.761,29.555-17.633l-3.528-49.942
			c-0.284-4.979,1.092-9.634,3.521-13.703c0.321-0.538,0.763-1,1.123-1.515c0.448-0.852,0.985-1.657,1.527-2.457
			c-21.099-8.241-31.745-15.593-31.745-15.593c-7.855,17.029-13.881,65.029-0.707,109.878
			C172.884,198.98,172.916,195.922,173.465,193.086z"/>
		<path fill="#BA987A" d="M214.093,187.756v36.28l16.07,5.922V178.13c0,0,6.424-4.443,15.263-12.585
			c0.801-6.665-4.82-26.654-5.622-43.686c2.713,0.71,5.54,1.341,8.417,1.928c-3.363-3.181-6.96-5.415-10.828-6.371
			c-12.348-3.048-22.854-6.468-31.605-9.782C205.663,107.836,214.093,187.756,214.093,187.756z"/>
		<path fill="#3D3737" d="M173.918,92.243c0,0,28.4,24.515,74.304,31.545c45.909,7.03,59.367-45.066,59.367-45.066l-12.38-5.46
			l-57.613-5.953L173.918,92.243z"/>
	</g>
</g>
<g>
	<g>
		<path fill="#B57E5B" d="M120.832,549.111c-19.03-2.844-34.925-9.099-42.919-16.052c-0.574,9.369-1.003,18.162-1.319,25.909
			c-0.707,17.129-0.284,34.23,1.243,51.305c0.183,2.062,0.461,16.676,36.823,19.966c24.104,2.177,42.584-10.16,43.834-16.19
			c0.271-19.643,2.707-39.216,7.546-58.372c0.833-3.295,1.704-6.616,2.619-9.943C158.892,550.525,140.814,552.098,120.832,549.111z"
			/>
	</g>
</g>
</svg>
